<svg width="510" height="260" viewBox="0 0 510 260" fill="none" xmlns="http://www.w3.org/2000/svg">
<path d="M101.429 208.169V251.482C101.247 254.589 99.0536 256.143 94.8502 256.143L85.3926 257.65C82.6513 258.107 80.3211 258.61 78.4022 259.158C76.9401 259.615 75.7522 259.889 74.8385 259.98C72.6454 260.163 71.5489 259.067 71.5489 256.691C71.5489 255.777 71.7316 254.452 72.0971 252.716C73.1023 248.604 73.6049 243.852 73.6049 238.461V208.169L73.7419 204.331L72.0971 200.768C71.092 199.945 68.3963 199.534 64.0102 199.534H9.86881C5.7568 199.534 3.06116 199.214 1.78187 198.575C0.593956 197.843 0 196.29 0 193.914C0 189.437 10.874 172.029 32.6219 141.692C48.8871 119.03 63.5076 99.7494 76.4833 83.8496C89.5503 67.9499 97.226 60 99.5105 60C100.973 60 101.704 61.1879 101.704 63.5637L101.566 75.2144L101.429 87.4134V168.831L102.115 172.532C102.754 173.994 105.085 174.725 109.105 174.725C116.141 174.725 120.71 171.709 122.812 165.678C123.36 164.034 124.228 163.211 125.416 163.211C127.792 163.211 128.98 164.262 128.98 166.364C128.98 167.278 128.888 168.191 128.706 169.105C128.34 170.841 127.929 174.725 127.472 180.756C126.924 188.98 125.736 194.234 123.908 196.519C122.081 198.712 118.197 199.808 112.258 199.808H107.734C104.902 199.808 103.12 200.265 102.389 201.179C101.749 202.093 101.429 204.423 101.429 208.169ZM73.6049 165.953V142.24L73.3307 126.752L73.6049 112.771L73.4678 109.207C73.4678 107.654 73.0566 106.877 72.2342 106.877C71.4118 106.877 70.0411 108.156 68.1222 110.715L63.4619 116.883L48.6587 136.072C42.7191 143.656 35.8201 153.48 27.9616 165.541C26.6823 167.552 25.6315 169.059 24.8091 170.065C23.8039 171.435 23.3014 172.578 23.3014 173.491C23.3927 174.953 25.2203 175.684 28.784 175.684L33.1702 175.821H68.8075C72.0971 175.821 73.7419 173.628 73.7419 169.242L73.6049 165.953Z" fill="#454545"/>
<path opacity="0.2" d="M380.558 250.317C380.558 255.664 328.717 260 264.768 260C200.82 260 148.98 255.664 148.98 250.317C148.98 244.969 200.82 240.632 264.768 240.632C328.717 240.632 380.558 244.969 380.558 250.317Z" fill="#999999"/>
<path d="M174.151 159.1C174.151 159.1 155.811 49.7381 223.738 15.095C291.666 -19.5497 351.441 8.98151 362.989 64.6822C374.538 120.381 346.007 160.459 313.401 161.817C280.798 163.176 252.947 143.478 252.947 143.478C252.947 143.478 242.079 157.062 242.079 172.006C214.228 174.724 184.34 169.969 174.151 159.1Z" fill="#E3E3E3"/>
<mask id="mask0_1747_1717" style="mask-type:luminance" maskUnits="userSpaceOnUse" x="198" y="108" width="50" height="61">
<path d="M198.539 108.198H247.961V168.964H198.539V108.198Z" fill="white"/>
</mask>
<g mask="url(#mask0_1747_1717)">
<g opacity="0.699997">
<path d="M208.246 167.43L246.426 130.574" stroke="#CCCCCC" stroke-width="2.66667" stroke-miterlimit="10" stroke-linecap="round" stroke-linejoin="round"/>
<path d="M200.071 164.433L200.153 109.732" stroke="#CCCCCC" stroke-width="2.66667" stroke-miterlimit="10" stroke-linecap="round" stroke-linejoin="round"/>
<path d="M245.554 132.191C242.408 135.269 237.671 136.62 233.378 135.666C231.892 135.336 230.314 134.6 229.782 133.176C229.181 131.563 230.158 129.828 231.095 128.386C231.605 127.597 232.165 126.769 233.02 126.383C233.879 125.998 235.109 126.297 235.365 127.202C234.351 129.744 232.137 131.668 229.664 132.84C226.514 134.332 222.528 134.634 219.712 132.582C216.899 130.531 216.235 125.705 219.026 123.62C219.57 123.215 220.269 122.925 220.922 123.106C221.922 123.385 222.339 124.69 221.985 125.665C221.629 126.641 220.738 127.315 219.832 127.818C217.143 129.312 213.691 129.723 211.006 128.22C208.321 126.719 206.868 123.023 208.378 120.342C208.781 119.627 209.414 118.986 210.218 118.819C211.021 118.652 211.978 119.113 212.147 119.915C211.874 121.962 209.611 123.31 207.555 123.132C205.498 122.953 203.713 121.61 202.367 120.044C200.691 118.097 199.48 115.544 199.872 113.001" stroke="#CCCCCC" stroke-width="1.33333" stroke-miterlimit="10"/>
</g>
</g>
<path d="M242.604 168.9C242.604 168.9 187.719 163.156 172.083 150.074L166.66 151.987C166.66 151.987 162.512 189.96 162.512 196.022L169.532 207.191C169.532 207.191 206.227 218.679 226.968 215.488L236.541 211.979L245.476 171.771L242.604 168.9Z" fill="#717171"/>
<path d="M165.246 170.115C167.054 170.724 168.432 172.306 169.949 173.366C171.603 174.52 173.439 175.413 175.234 176.316C178.324 177.872 181.294 179.643 184.483 180.959C191.16 183.714 197.864 185.81 204.922 187.503C211.087 188.981 217.53 189.421 223.799 190.245C227.155 190.685 230.535 190.558 233.836 190.949C235.578 191.156 237.984 192.18 239.499 190.863C239.732 190.66 239.485 190.243 239.197 190.342C237.892 190.789 235.426 189.697 234.135 189.438C232.497 189.107 230.84 189.142 229.187 188.88C226.556 188.462 223.912 188.035 221.247 187.758C214.815 187.086 208.428 186.566 202.18 184.857C195.89 183.136 189.889 181.641 183.867 179.148C180.504 177.756 177.197 176.034 173.877 174.496C171.122 173.219 168.32 170.232 165.344 169.758C165.113 169.719 165.016 170.037 165.246 170.115Z" fill="#454545"/>
<g opacity="0.3">
<path d="M240.989 170.8C237.437 170.096 233.893 169.774 230.316 169.253C227.399 168.828 224.293 168.935 221.433 168.218C221.188 168.156 221.07 168.475 221.267 168.612C223.842 170.403 227.507 170.383 230.489 170.755C233.844 171.174 237.667 172.027 240.989 171.229C241.198 171.18 241.209 170.841 240.989 170.8Z" fill="#454545"/>
</g>
<g opacity="0.3">
<path d="M219.19 168.105C218.934 168.182 218.752 168.193 218.503 168.308C218.402 168.352 218.423 168.493 218.503 168.544C218.905 168.803 219.018 168.544 219.294 168.286C219.374 168.213 219.291 168.075 219.19 168.105Z" fill="#454545"/>
</g>
<g opacity="0.3">
<path d="M216.447 168.095C216.197 168.017 216.202 168.023 215.946 168.07C215.808 168.098 215.808 168.322 215.946 168.348C216.202 168.397 216.197 168.403 216.447 168.325C216.561 168.29 216.561 168.129 216.447 168.095Z" fill="#454545"/>
</g>
<g opacity="0.3">
<path d="M213.827 167.257C213.988 167.257 213.988 167.006 213.827 167.006C213.666 167.006 213.666 167.257 213.827 167.257Z" fill="#454545"/>
</g>
<g opacity="0.3">
<path d="M241.388 173.556C240.358 174.447 240.393 175.75 239.921 176.956C239.525 177.969 238.581 179.489 238.944 180.597C239.029 180.856 239.323 180.924 239.524 180.749C240.576 179.843 240.951 179.194 241.299 177.794C241.62 176.517 241.529 175.146 242.009 173.916C242.157 173.541 241.64 173.338 241.388 173.556Z" fill="#454545"/>
</g>
<g opacity="0.3">
<path d="M240.789 182.129C239.368 182.139 238.009 182.161 236.597 181.971C235.545 181.83 234.521 181.682 233.455 181.704C233.333 181.705 233.333 181.891 233.455 181.896C235.93 181.98 238.299 182.369 240.789 182.333C240.92 182.331 240.92 182.127 240.789 182.129Z" fill="#454545"/>
</g>
<path d="M240.358 184.932C241.54 185.073 242.126 185.661 242.485 186.783C242.931 188.177 241.761 188.247 240.72 188.453C240.465 188.503 240.484 188.89 240.72 188.95C241.463 189.14 242.362 189.394 243.015 188.859C243.599 188.381 243.648 187.577 243.363 186.924C242.871 185.794 241.747 184.284 240.326 184.708C240.197 184.748 240.235 184.918 240.358 184.932Z" fill="#454545"/>
<g opacity="0.3">
<path d="M237.553 187.054C238.19 187.014 237.688 188.364 237.285 188.511C237.161 188.557 237.073 188.739 237.199 188.842C238.531 189.925 238.7 186.478 237.532 186.901C237.457 186.929 237.46 187.06 237.553 187.054Z" fill="#454545"/>
</g>
<g opacity="0.3">
<path d="M235.231 187.094C234.878 187.641 234.292 187.966 233.776 188.293C233.63 188.385 233.632 188.586 233.776 188.676C234.685 189.259 235.353 187.956 235.582 187.243C235.648 187.028 235.344 186.918 235.231 187.094Z" fill="#454545"/>
</g>
<g opacity="0.3">
<path d="M233.133 187.301C232.856 187.529 232.498 187.474 232.161 187.516C232.052 187.528 232.002 187.706 232.133 187.726C232.603 187.805 232.968 187.844 233.346 187.514C233.492 187.385 233.28 187.181 233.133 187.301Z" fill="#454545"/>
</g>
<g opacity="0.3">
<path d="M230.219 187.503C229.285 187.508 228.359 187.491 227.437 187.333C227.339 187.316 227.296 187.459 227.394 187.482C228.331 187.708 229.259 187.735 230.219 187.742C230.374 187.744 230.375 187.501 230.219 187.503Z" fill="#454545"/>
</g>
<path d="M233.886 205.358C220.424 204.954 207.058 203.219 193.775 200.919C191.205 200.473 188.63 200.269 186.083 199.708C183.572 199.158 181.272 197.912 178.88 196.983C176.417 196.028 174.12 194.726 171.694 193.696C169.195 192.633 166.55 191.801 164.322 190.247C164.129 190.111 163.891 190.417 164.069 190.575C167.491 193.607 172.262 195.662 176.373 197.557C181.402 199.878 186.223 201.381 191.709 202.088C198.185 202.922 204.551 204.751 211.076 205.121C214.918 205.337 218.775 205.733 222.611 206.062C226.383 206.386 230.109 205.809 233.886 205.694C234.102 205.687 234.104 205.365 233.886 205.358Z" fill="#454545"/>
<g opacity="0.3">
<path d="M237.185 197.778C237.427 196.792 238.09 198.436 238.096 198.623C238.111 199.161 237.846 199.821 237.534 200.229C237.091 200.802 236.441 201.372 235.846 201.779C235.145 202.259 234.37 202.498 233.52 202.536C232.936 202.561 231.7 202.775 231.163 202.642C230.912 202.581 230.674 202.858 230.818 203.091C231.496 204.186 233.526 203.89 234.58 203.648C236.118 203.294 237.38 202.208 238.267 200.925C238.824 200.121 239.128 198.385 238.355 197.59C237.906 197.125 237.085 196.99 237.056 197.76C237.053 197.833 237.166 197.85 237.185 197.778Z" fill="#454545"/>
</g>
<g opacity="0.3">
<path d="M229.188 201.165C229.06 201.935 228.581 202.406 228.083 202.964C227.893 203.177 227.692 203.476 227.47 203.648C227.284 203.79 227.174 203.78 226.933 203.83C226.799 203.858 226.737 204.062 226.849 204.151C227.1 204.352 227.284 204.576 227.632 204.525C228.038 204.468 228.357 204.09 228.575 203.772C229.084 203.025 229.727 202.111 229.524 201.165C229.489 201.004 229.219 200.997 229.188 201.165Z" fill="#454545"/>
</g>
<g opacity="0.3">
<path d="M226.207 201.567C225.881 202.32 225.001 202.657 224.498 203.255C224.426 203.34 224.441 203.444 224.53 203.508C225.263 204.04 226.385 202.237 226.482 201.682C226.508 201.532 226.281 201.4 226.207 201.567Z" fill="#454545"/>
</g>
<g opacity="0.3">
<path d="M223.452 202.425C222.816 202.968 221.656 202.393 220.913 202.606C220.796 202.641 220.802 202.799 220.913 202.837C221.655 203.09 223.023 203.209 223.613 202.586C223.716 202.479 223.562 202.33 223.452 202.425Z" fill="#454545"/>
</g>
<g opacity="0.3">
<path d="M218.819 203.037C218.207 202.902 218.025 202.413 218.039 201.858C218.042 201.709 217.829 201.719 217.812 201.858C217.721 202.574 218.019 203.137 218.756 203.267C218.906 203.295 218.972 203.069 218.819 203.037Z" fill="#454545"/>
</g>
<g opacity="0.3">
<path d="M234.142 197.401C231.828 196.662 229.407 196.264 226.984 196.119C226.837 196.11 226.802 196.354 226.949 196.379C229.349 196.753 231.728 196.978 234.062 197.688C234.246 197.746 234.324 197.46 234.142 197.401Z" fill="#454545"/>
</g>
<g opacity="0.3">
<path d="M233.024 209.876C231.158 209.889 230.247 210.652 228.583 211.454C225.155 213.108 221.789 213.353 218.038 212.505C215.724 211.983 213.515 211.679 211.169 211.343C208.265 210.929 205.669 209.733 202.864 209.268C202.686 209.239 202.607 209.494 202.787 209.546C205.641 210.379 208.005 211.852 211.028 212.38C213.978 212.893 216.923 213.438 219.875 213.934C221.965 214.287 224.193 214.927 226.248 214.253C228.816 213.415 230.391 210.658 233.071 210.227C233.274 210.196 233.222 209.874 233.024 209.876Z" fill="#454545"/>
</g>
<g opacity="0.3">
<path d="M165.926 168.084C166.243 168.014 166.352 167.945 166.59 167.807C166.725 167.73 166.688 167.322 166.827 167.25C168.114 166.582 169.563 166.416 170.793 166.769C172.987 167.396 175.4 168.751 177.506 169.647C180.9 171.091 184.28 172.585 187.736 173.877C190.262 174.825 192.818 174.537 195.319 175.219C195.748 175.337 195.929 174.779 195.604 174.541C193.273 172.835 189.627 171.906 186.953 170.808C182.809 169.107 178.651 167.41 174.463 165.846C172.387 165.07 169.988 163.185 167.626 164.018C166.925 164.265 166.154 164.858 165.846 165.55C165.493 166.341 166.015 167.174 165.723 167.821C165.659 167.963 165.765 168.121 165.926 168.084Z" fill="#454545"/>
</g>
<g opacity="0.3">
<path d="M198.403 176.457C198.587 176.94 198.722 177.302 199.25 177.503C199.848 177.731 200.562 177.53 201.157 177.369C201.493 177.277 201.482 176.796 201.157 176.699C200.648 176.549 200.288 176.09 199.75 176.023C199.411 175.978 199.064 176.155 198.75 176.11C198.563 176.086 198.318 176.233 198.403 176.457Z" fill="#454545"/>
</g>
<g opacity="0.3">
<path d="M204.757 178.44C207.791 178.668 211.211 180.441 214.052 181.449C216.625 182.365 219.4 183.253 222.131 183.481C222.579 183.52 222.576 182.906 222.229 182.762C219.034 181.448 215.895 180.625 212.571 179.792C210.09 179.171 207.348 178.01 204.757 178.236C204.626 178.246 204.625 178.429 204.757 178.44Z" fill="#454545"/>
</g>
<path d="M164.506 187.529C164.068 187 164 184.981 164.348 184.419C165.692 182.256 168.682 184.347 170.355 185.114C173.752 186.67 177.368 187.782 180.755 189.318C183.232 190.441 185.648 191.585 188.194 192.572C190.188 193.347 192.254 194.595 194.439 193.928C194.776 193.823 194.822 193.382 194.534 193.195C191.556 191.261 187.996 190.478 184.717 189.059C179.967 187.008 175.163 185.077 170.42 182.989C168.665 182.214 164.808 180.612 163.321 182.912C162.475 184.218 163.203 186.795 164.21 187.825C164.402 188.021 164.675 187.733 164.506 187.529Z" fill="#454545"/>
<path d="M197.076 194.409C197.098 195.004 197.857 194.813 198.272 194.742C198.417 194.717 198.363 194.52 198.24 194.506C198.096 194.492 197.302 194.575 197.23 194.388C197.199 194.313 197.073 194.314 197.076 194.409Z" fill="#454545"/>
<path d="M200.598 195.612C205.761 196.638 209.946 201.572 215.449 199.209C215.92 199.007 215.682 198.394 215.323 198.246C210.852 196.39 205.452 195.486 200.631 195.376C200.497 195.373 200.464 195.584 200.598 195.612Z" fill="#454545"/>
<g opacity="0.3">
<path d="M167.182 159.592C167.242 159.593 167.302 159.593 167.361 159.595C167.449 159.598 167.519 159.533 167.545 159.455C167.978 158.169 167.512 156.749 167.987 155.441C168.527 153.963 170.328 153.972 171.319 152.937C171.551 152.696 171.317 152.33 171.005 152.397C170.21 152.567 169.539 153.204 168.821 153.587C168.317 153.858 167.883 154.14 167.599 154.657C167.277 155.244 167.193 155.968 167.131 156.626C167.098 156.988 167.331 159.21 167.105 159.311C166.963 159.377 167.044 159.588 167.182 159.592Z" fill="#454545"/>
</g>
<g opacity="0.3">
<path d="M172.933 154.419C175.103 155.539 176.957 157.245 179.205 158.268C181.611 159.364 184.19 160.133 186.642 161.117C190.917 162.833 195.633 164.67 200.195 164.989C200.601 165.016 200.896 164.493 200.672 164.159C199.666 162.663 197.604 162.092 195.949 161.671C193.313 160.997 190.875 160.094 188.347 159.168C185.596 158.158 182.739 157.406 179.975 156.443C177.718 155.658 175.453 154.195 173.045 154.007C172.828 153.99 172.743 154.323 172.933 154.419Z" fill="#454545"/>
</g>
<g opacity="0.3">
<path d="M203.858 165.409C204.45 165.535 205.007 165.815 205.599 165.912C206.353 166.037 207.121 165.809 207.877 165.83C208.555 165.85 209.322 165.985 209.973 166.192C210.584 166.386 211.076 166.81 211.678 166.93C211.813 166.958 211.868 166.766 211.735 166.721C211.343 166.591 211.228 166.234 210.87 166.087C210.268 165.841 209.288 165.864 208.604 165.752C207.782 165.619 206.965 165.709 206.141 165.63C205.359 165.55 204.674 165.196 203.889 165.197C203.768 165.197 203.737 165.383 203.858 165.409Z" fill="#454545"/>
</g>
<g opacity="0.3">
<path d="M169.978 160.19C170.35 160.278 169.967 161.619 169.973 161.917C169.981 162.3 170.064 162.57 170.386 162.792C170.473 162.854 170.59 162.733 170.533 162.645C170.042 161.891 170.623 160.905 170.292 160.095C170.271 160.043 170.24 160.022 170.186 160.014C170.125 160.006 170.065 159.999 170.005 159.991C169.89 159.976 169.867 160.164 169.978 160.19Z" fill="#454545"/>
</g>
<g opacity="0.3">
<path d="M171.865 162.047C171.797 162.65 171.533 163.289 172.116 163.672C172.219 163.74 172.338 163.608 172.28 163.507C172.039 163.082 172.076 162.518 172.056 162.047C172.05 161.921 171.878 161.928 171.865 162.047Z" fill="#454545"/>
</g>
<g opacity="0.3">
<path d="M172.552 162.758C172.958 163.198 173.438 164.101 174.154 163.867C174.245 163.834 174.226 163.709 174.131 163.701C173.524 163.653 173.072 163.037 172.67 162.64C172.593 162.563 172.48 162.678 172.552 162.758Z" fill="#454545"/>
</g>
<g opacity="0.3">
<path d="M175.163 164.095C175.514 164.284 176.036 164.558 176.231 164.913C176.277 164.994 176.421 164.939 176.385 164.848C176.217 164.439 175.689 163.97 175.248 163.898C175.134 163.879 175.048 164.032 175.163 164.095Z" fill="#454545"/>
</g>
<path d="M180.391 206.688C180.391 206.688 201.579 233.954 168.7 250.76C182.582 251.491 196.463 250.89 196.463 250.89C196.463 250.89 208.52 241.393 188.062 243.584C196.83 238.104 193.541 236.279 185.14 242.489C194.272 231.893 195.002 217.282 186.601 208.148" fill="#717171"/>
<path d="M215.468 211.406C215.468 211.406 239.004 224.162 205.256 249.907C217.382 250.545 229.509 250.022 229.509 250.022C229.509 250.022 240.042 241.724 222.169 243.639C229.828 238.852 226.956 237.256 219.616 242.681C231.37 230.383 231.37 219.075 220.893 212.682" fill="#717171"/>
<path d="M261.358 147.143C261.358 147.143 262.926 195.752 261.985 200.458C261.045 205.16 255.399 212.061 251.636 210.806C247.873 209.552 251.949 202.965 251.949 202.965C251.949 202.965 248.186 202.025 251.949 198.575C255.713 195.125 256.655 195.752 256.655 195.752L258.535 145.26" fill="#E3E3E3"/>
<path d="M197.381 140.243C197.381 140.243 198.322 187.912 197.068 191.049C195.814 194.185 192.991 200.142 187.345 200.458C181.699 200.771 187.032 193.558 187.032 193.558C187.032 193.558 187.032 186.031 193.305 187.912C193.932 175.053 194.558 139.929 194.558 139.929" fill="#E3E3E3"/>
<path d="M193.305 187.912C193.091 183.899 193.048 179.894 193.03 175.892C192.996 171.89 193.081 167.892 193.165 163.895C193.286 159.899 193.412 155.903 193.656 151.91L194.027 145.919C194.206 143.923 194.332 141.926 194.557 139.928C194.68 141.932 194.701 143.932 194.778 145.934L194.835 151.941C194.87 155.943 194.784 159.946 194.697 163.945C194.573 167.946 194.448 171.946 194.205 175.939C193.976 179.935 193.723 183.928 193.305 187.912Z" fill="#454545"/>
<path d="M197.381 140.243C197.778 144.474 197.989 148.709 198.169 152.944C198.364 157.179 198.423 161.417 198.466 165.655C198.475 169.895 198.452 174.136 198.279 178.375C198.038 182.601 198.06 186.889 197.068 191.049C197.332 188.95 197.221 186.826 197.198 184.712L197.1 178.364C196.996 174.132 196.977 169.898 196.934 165.665C196.93 161.429 196.908 157.196 196.994 152.959C197.062 148.721 197.145 144.486 197.381 140.243Z" fill="#454545"/>
<path d="M247.883 137.106C248.005 134.524 247.478 131.989 245.834 130.749C244.278 129.427 241.955 129.08 239.627 128.933L237.842 128.876C237.244 128.852 236.628 128.942 236.019 128.952L234.177 129.005C233.563 129.082 232.943 129.143 232.319 129.186C229.817 129.324 227.317 129.72 224.672 129.698C226.978 128.488 229.373 127.427 231.917 126.828C232.546 126.65 233.178 126.478 233.819 126.342L235.781 126.057C236.441 125.977 237.091 125.87 237.764 125.848L239.797 125.871C240.469 125.859 241.162 125.977 241.852 126.11C242.54 126.257 243.229 126.314 243.907 126.642C244.58 126.943 245.27 127.121 245.883 127.611C246.194 127.826 246.509 128.036 246.808 128.26C247.091 128.51 247.327 128.835 247.577 129.122C248.114 129.669 248.399 130.417 248.698 131.091C248.868 131.824 249.04 132.533 249.002 133.245C248.959 134.656 248.586 135.988 247.883 137.106Z" fill="#454545"/>
<path d="M239.415 110.386C240.129 111.572 240.764 112.595 241.457 113.382C242.155 114.176 242.852 114.593 243.644 114.839C244.438 115.111 245.473 115.058 246.595 115.061C247.156 114.972 247.764 114.99 248.382 114.92C249.006 114.86 249.64 114.786 250.364 114.825C249.956 115.391 249.461 115.846 248.955 116.312C248.421 116.722 247.819 117.068 247.204 117.393C245.908 117.888 244.386 118.279 242.76 117.773C241.141 117.313 239.832 115.955 239.356 114.549C238.875 113.132 238.861 111.684 239.415 110.386Z" fill="#454545"/>
<path d="M260.721 121.057C260.945 122.397 261.091 123.576 261.359 124.6C261.618 125.631 261.996 126.385 262.499 126.857C262.998 127.351 263.814 127.707 264.835 128.049C265.364 128.145 265.918 128.333 266.504 128.463C267.099 128.59 267.71 128.708 268.376 128.957C267.839 129.378 267.246 129.665 266.637 129.964C266.016 130.183 265.348 130.347 264.665 130.453C263.294 130.536 261.626 130.278 260.356 129.049C259.084 127.817 258.763 126.048 258.958 124.677C259.168 123.274 259.731 122.02 260.721 121.057Z" fill="#454545"/>
<path d="M237.357 118.774C237.124 119.828 234.798 120.209 232.163 119.625C229.529 119.041 227.582 117.713 227.815 116.658C228.049 115.605 230.374 115.224 233.01 115.807C235.644 116.391 237.59 117.721 237.357 118.774Z" fill="#454545"/>
<path d="M261.695 137.079C261.041 137.939 258.771 137.312 256.619 135.681C254.471 134.048 253.257 132.028 253.91 131.168C254.563 130.308 256.835 130.933 258.984 132.566C261.135 134.198 262.348 136.217 261.695 137.079Z" fill="#454545"/>
<path d="M272.777 15.3174C269.979 17.7539 264.474 17.1897 260.914 17.7647C257.185 18.3673 253.443 18.9546 249.726 19.6246C246.052 20.284 242.466 21.2929 238.824 22.0887C235.745 22.7604 233.333 24.0913 230.46 25.3272C226.873 26.8698 223.635 28.0826 220.436 30.4026C217.86 32.2733 215.881 34.2605 213.7 36.5468C211.621 38.7272 210.042 41.1392 208.045 43.4193C206.041 45.7086 204.434 47.4198 202.849 50.0234C200.907 53.2128 198.101 55.8901 196.036 59.0212C193.969 62.1554 192.083 65.3432 190.625 68.8071C188.204 74.5556 185.744 79.6924 184.292 85.7859C182.757 92.2214 181.116 98.5036 180.169 105.06C179.736 108.044 178.445 110.948 178.573 113.966C178.691 116.746 179.606 119.19 180.252 121.855C180.365 122.33 181.009 122.269 181.152 121.855C181.762 120.098 183.166 118.955 183.938 117.31C184.471 116.171 184.378 115.163 184.514 113.966C184.876 110.819 185.917 107.725 186.359 104.553C187.224 98.315 188.953 92.2429 190.456 86.1279C191.894 80.2827 194.411 74.6936 197.036 69.2701C200.064 63.014 204.732 57.862 208.471 52.0919C210.158 49.4898 212.592 47.4213 214.419 44.856C215.894 42.7845 217.572 40.8662 219.326 39.0017C224.112 33.914 230.516 31.4484 236.434 28.0765C242.524 24.6065 249.17 22.469 255.84 20.4159C259.42 19.3134 262.979 18.4808 266.659 17.7984C268.927 17.3767 271.311 17.2203 273 15.5382C273.141 15.3941 272.929 15.1856 272.777 15.3174Z" fill="#CCCCCC"/>
<path d="M177.839 131.284C177.698 133.397 177.759 135.41 177.983 137.512C178.012 137.804 178.407 137.805 178.439 137.512C178.66 135.41 178.721 133.397 178.581 131.284C178.549 130.805 177.871 130.805 177.839 131.284Z" fill="#454545"/>
<path d="M224.057 47.987C225.379 46.6177 226.389 44.4786 228.463 44.172C229.223 44.0585 229.143 43.7012 229.843 44.4234C230.73 45.3388 229.625 46.0764 228.887 46.9765C227.562 48.5957 226.097 49.5402 224.218 50.4112C223.036 50.9586 221.638 52.0718 220.236 51.7912C220.443 52.5748 220.649 53.3583 220.856 54.1403C222.209 52.7373 222.984 51.0368 224.206 49.5418C225.695 47.7171 227.538 45.828 229.329 44.2916C229.458 44.1812 230.568 43.3102 230.651 43.3976C230.597 43.3409 230.419 43.9435 230.418 43.9588C230.345 45.0429 228.973 46.4505 228.263 47.1835C227.507 47.964 226.638 48.6264 225.733 49.2259C225.399 49.4467 225.048 49.643 224.715 49.8638C224.303 50.0279 223.951 50.2732 223.658 50.6029C223.304 51.0705 223.203 51.0797 223.358 50.6259C223.011 49.0542 225.615 46.7296 226.527 45.9307C227.487 45.092 228.492 44.379 229.651 43.8607C230.692 43.3946 230.925 42.9698 231.558 44.0585C232.166 45.1088 231.555 45.5321 230.844 46.3524C229.43 47.9762 227.648 48.9698 225.724 49.8745C225.379 50.0386 224.089 50.3897 223.83 50.6719C223.915 50.9739 224 51.2775 224.086 51.5811C224.154 51.3251 224.223 51.0675 224.292 50.8114C225.029 50.011 225.37 48.7782 226.155 47.9287C226.667 47.3767 231.403 43.4774 231.744 44.014C232.235 44.7884 228.889 48.5006 228.328 48.9898C226.73 50.3836 224.675 51.5137 222.622 52.0595C221.854 52.2635 220.373 52.012 221.173 52.863C222.101 53.8459 221.357 53.277 221.751 52.886C222.022 52.6192 222.314 51.5551 222.495 51.1978C223.191 49.8193 224.01 48.6862 225.078 47.5637C225.83 46.7741 229.855 42.5313 229.833 45.529C229.816 47.6634 226.675 48.9346 225.058 49.4053C224.546 49.554 223.022 50.1352 222.634 49.8193C222.562 49.761 221.992 51.7513 222.797 49.324C222.913 48.9698 223.197 48.5773 223.41 48.2706C224.376 46.8691 226.383 45.8847 228.006 45.483C229.602 45.0889 230.674 46.0273 229.496 47.5591C228.915 48.3151 228.107 48.9698 227.351 49.5387C226.885 49.8898 226.405 50.2303 225.88 50.4925C225.35 50.7577 224.258 50.8298 223.833 51.1825C223.754 51.1917 223.674 51.2009 223.594 51.2116C223.085 51.1993 223.166 51.4723 223.839 52.0335C223.921 52.0181 224.667 50.6795 224.773 50.5446C225.515 49.5924 226.428 48.657 227.437 48.0038C226.825 47.2111 226.212 46.4183 225.6 45.6241C225.006 46.3125 224.563 47.3153 223.608 47.5561C223.993 48.4669 224.376 49.3792 224.761 50.2916C225.12 50.0141 225.52 49.8208 225.957 49.7104C227.831 49.0634 226.961 46.0381 225.141 46.7526C224.464 47.0209 223.833 47.2586 223.251 47.7048C222.006 48.6601 222.634 50.9663 224.404 50.4419C226.015 49.9635 226.583 48.8778 227.743 47.7662C229.016 46.5487 227.4 44.5921 225.906 45.3864C223.715 46.5517 218.62 50.6795 221.018 53.5576C222.738 55.6231 226.161 53.7432 227.861 52.564C229.996 51.0874 233.461 48.1204 232.678 45.1318C231.718 41.4702 227.176 42.4423 224.7 43.5908C222.252 44.7255 218.911 47.3629 219.359 50.4817C219.902 54.2691 225.689 52.1148 227.705 51.0567C230.252 49.7181 233.044 46.7235 232.402 43.5433C231.623 39.6823 226.233 41.8459 224.329 43.3501C221.559 45.5336 218.628 48.7322 217.869 52.3463C216.872 57.0767 222.272 55.8684 224.868 54.7552C228.863 53.044 232.093 50.0677 233.992 46.1653C235.893 42.2507 233.262 39.9522 229.393 41.5162C225.676 43.0204 221.342 46.6284 220.627 50.8129C219.735 56.0187 225.646 53.5086 227.989 52.1347C230.907 50.4265 236.528 46.5165 234.769 42.4301C232.983 38.2731 227.792 41.0792 225.322 42.9744C223.326 44.5078 217.841 49.9006 220.756 52.8983C223.639 55.8653 229.919 49.712 231.426 47.599C232.363 46.2849 233.737 44.0846 233.346 42.3595C232.912 40.4536 230.816 40.3708 229.303 41.001C227.263 41.852 225.63 44.0708 224.073 45.5719C221.946 47.6174 220.262 49.9911 218.649 52.4368C218.039 53.3614 218.851 54.5237 219.863 54.5513C222.507 54.6279 225.656 52.5886 227.647 51.0276C229.367 49.6798 232.167 46.7633 232.13 44.4204C232.106 42.8594 230.879 42.6723 229.591 42.9391C226.506 43.577 225.641 45.4155 223.718 47.6465C223.519 47.8796 223.839 48.2108 224.057 47.987Z" fill="#CCCCCC"/>
<path d="M212.677 63.2412C214.357 63.2412 214.36 60.6299 212.677 60.6299C210.995 60.6299 210.993 63.2412 212.677 63.2412Z" fill="#CCCCCC"/>
<path d="M282.855 15.6549C284.474 15.4816 286.065 15.1657 287.7 15.4187C287.913 15.4509 288.412 15.5169 288.508 15.5844C288.523 15.5966 288.625 15.8282 288.628 15.8205C288.726 15.4816 288.051 15.8696 287.945 15.9094C287.22 16.1931 285.423 16.8739 284.736 16.2897V18.1328C285.121 17.8077 285.845 17.5516 286.372 17.3906C286.713 17.2848 287.068 17.1775 287.423 17.1392C288.108 17.0656 287.901 17.3508 287.679 16.9368C287.751 16.3786 287.823 15.8174 287.895 15.2577C286.88 16.5504 284.543 15.9018 283.072 16.1226C283.335 17.0778 283.598 18.0347 283.862 18.9915C284.601 18.7507 285.248 18.3935 285.926 18.0239C286.311 17.8123 287.174 17.2664 287.631 17.3676C287.271 16.7328 286.91 16.0965 286.548 15.4601C286.383 16.2636 284.374 16.7436 283.773 16.3848L284.514 18.2033C284.701 17.7372 285.578 17.3692 285.996 17.2112C286.775 16.9168 287.137 17.337 286.851 16.3219C286.763 16.0919 286.697 15.8573 286.654 15.6166C286.653 15.5966 286.657 15.5905 286.674 15.5982C286.777 15.7515 286.361 15.4494 286.558 15.6104C286.575 15.6227 286.269 15.4095 286.171 15.3513C286.084 15.316 286.007 15.2669 285.937 15.2056C285.368 14.9373 285.357 14.9618 285.901 15.2746C285.517 14.6352 284.669 14.5509 284.133 15.0477C282.373 16.6746 283.517 19.1218 285.809 19.292C287.524 19.4193 289.378 18.4287 289.782 16.6592C290.287 14.4481 288.119 13.5036 286.283 13.7305C284.187 13.9912 282.108 15.3022 281.406 17.3477C281.182 17.9933 281.547 18.8489 282.146 19.1678C284.482 20.4114 288.987 19.1525 289.539 16.2851C289.69 15.5015 289.328 14.5601 288.456 14.3776C286.299 13.9237 284.935 15.4295 283.072 16.1226C281.281 16.7865 281.968 19.3549 283.862 18.9915C286.254 18.5299 288.404 19.1709 290.071 16.9368C290.36 16.5488 290.294 15.934 290.071 15.5383C288.744 13.203 284.314 14.787 282.89 16.2897C282.286 16.9291 282.45 17.8614 283.155 18.3367C284.692 19.3733 286.857 18.7185 288.393 18.0147C289.479 17.5179 291.368 16.1333 289.974 14.8238C289.218 14.1154 287.43 14.4052 286.516 14.5432C285.27 14.7333 284.037 15.0001 282.793 15.2087C282.543 15.2485 282.599 15.6825 282.855 15.6549Z" fill="#CCCCCC"/>
<path d="M346.57 118.561C345.955 122.825 343.47 127.361 340.371 130.364C338.834 131.855 337.137 133.572 335.452 134.888C334.177 135.883 332.679 136.435 331.382 137.412C327.613 140.25 323.979 141.469 319.572 142.901C316.312 143.961 312.893 143.824 309.493 144.203C301.909 145.048 294.227 143.522 286.754 142.432C282.522 141.816 278.458 140.724 274.263 139.974C272.103 139.589 269.379 139.626 267.297 139.011C266.679 138.829 266.136 139.233 265.926 139.788C264.974 142.295 268.119 143.361 269.807 144.188C273.794 146.138 278.336 147.417 282.77 148.038C292.111 149.344 301.241 151.1 310.714 150.14C312.887 149.919 315.072 149.798 317.241 149.538C319.384 149.281 321.194 148.423 323.226 147.747C327.805 146.222 330.99 143.777 334.444 140.474C340.162 135.011 347.033 127.085 346.947 118.611C346.944 118.404 346.602 118.34 346.57 118.561Z" fill="#CCCCCC"/>
<path d="M346.219 113.012C346.955 113.597 347.284 114.23 347.564 115.115C347.785 115.811 347.975 116.534 348.411 117.134C348.754 117.611 349.269 118.054 349.903 117.887C350.583 117.707 350.659 116.982 350.655 116.386C350.594 116.495 350.531 116.602 350.468 116.709C350.56 116.663 350.651 116.617 350.74 116.57C351.011 116.43 350.876 116.012 350.591 116.012H350.28C350.113 116.01 349.967 116.128 349.919 116.286C349.896 116.358 349.852 116.633 349.772 116.672C349.818 116.651 349.846 116.646 349.72 116.614C349.49 116.551 349.282 116.239 349.156 116.051C348.837 115.588 348.645 115.042 348.406 114.536C347.998 113.676 347.394 112.735 346.373 112.644C346.193 112.629 346.075 112.899 346.219 113.012Z" fill="#CCCCCC"/>
<path d="M349.678 111.087C350.112 111.57 352.115 114.934 353.033 113.772C353.115 113.671 353.116 113.525 352.994 113.452C352.761 113.312 352.483 113.267 352.245 113.12C351.91 112.913 351.633 112.617 351.365 112.334C350.888 111.835 350.474 111.268 349.967 110.8C349.774 110.621 349.504 110.892 349.678 111.087Z" fill="#CCCCCC"/>
<path d="M352.507 106.15C353.577 106.222 353.372 107.815 353.896 108.404C354.008 108.53 354.185 108.444 354.237 108.313C354.438 107.82 353.993 107.042 353.743 106.633C353.461 106.176 353.079 105.757 352.507 105.767C352.259 105.771 352.263 106.133 352.507 106.15Z" fill="#CCCCCC"/>
<path d="M352.639 100.973C352.634 100.719 352.63 100.463 352.626 100.207C352.623 100.052 352.389 100.052 352.387 100.207C352.383 100.463 352.38 100.719 352.375 100.973C352.372 101.144 352.642 101.144 352.639 100.973Z" fill="#CCCCCC"/>
<path d="M244.675 145.524C241.591 145.963 240.523 150.956 239.279 153.208C237.484 156.465 234.457 159.762 235.041 163.722C235.167 164.581 236.354 164.546 236.748 163.946C238.399 161.431 239.261 158.078 240.532 155.298C241.785 152.559 241.944 147.601 244.923 146.116C245.282 145.938 245.006 145.477 244.675 145.524Z" fill="#CCCCCC"/>
<path d="M232.27 159.036C231.39 159.956 230.979 160.984 230.667 162.2C230.308 163.596 229.63 164.945 229.651 166.406C230.049 166.103 230.447 165.799 230.843 165.497C230.659 165.466 230.479 165.42 230.305 165.359C230.128 165.304 229.906 165.394 229.817 165.557C229.59 165.973 229.613 166.193 229.684 166.656C229.851 167.727 231.533 167.44 231.536 166.406C231.539 165.263 231.767 164.169 231.91 163.038C232.07 161.773 232.169 160.569 232.76 159.413C232.914 159.109 232.525 158.77 232.27 159.036Z" fill="#CCCCCC"/>
<path d="M229.585 160.187C228.789 161.043 228.063 161.788 227.741 162.938C227.577 163.525 227.002 164.669 227.679 165.086C227.951 165.253 228.288 165.181 228.513 164.979C229.062 164.487 229.079 163.8 229.053 163.116C229.021 162.187 229.598 161.33 230.074 160.564C230.26 160.267 229.828 159.927 229.585 160.187Z" fill="#CCCCCC"/>
<path d="M226.799 162.104C226.344 161.961 225.957 162.086 225.536 162.273C225.14 162.45 224.456 162.593 224.241 162.975C224.206 163.041 224.194 163.142 224.241 163.206C224.26 163.229 224.278 163.254 224.297 163.278C224.409 163.426 224.554 163.501 224.743 163.459C225.444 163.305 226.04 162.544 226.739 162.552C227.001 162.555 227.041 162.181 226.799 162.104Z" fill="#CCCCCC"/>
<path d="M225.152 162.128C224.344 162.364 223.534 162.537 222.688 162.49C221.981 162.453 221.314 162.197 220.604 162.18C220.438 162.175 220.414 162.414 220.565 162.464C221.337 162.701 222.034 162.951 222.85 162.951C223.681 162.951 224.471 162.769 225.259 162.52C225.507 162.442 225.405 162.053 225.152 162.128Z" fill="#CCCCCC"/>
<path d="M219.837 162.647C219.708 162.643 219.581 162.64 219.454 162.635C219.36 162.632 219.36 162.782 219.454 162.779C219.581 162.775 219.708 162.772 219.837 162.767C219.914 162.764 219.914 162.65 219.837 162.647Z" fill="#CCCCCC"/>
<path d="M254.276 203.807C254.184 204.235 253.534 204.828 253.237 205.169C252.867 205.59 252.459 205.995 252.065 206.395C251.325 207.151 250.546 207.864 249.86 208.666C249.744 208.804 249.851 209.088 250.06 209.008C251.198 208.562 252.049 207.554 252.809 206.61C253.18 206.15 253.56 205.704 253.847 205.192C254.094 204.75 254.497 204.362 254.523 203.839C254.53 203.701 254.306 203.667 254.276 203.807Z" fill="#717171"/>
<path d="M256.669 205.411C256.893 205.577 254.941 207.811 254.73 208.051C253.971 208.913 253.146 210.051 252.036 210.476C251.868 210.538 251.838 210.796 252.036 210.845C253.593 211.242 254.426 209.661 255.268 208.588C255.769 207.95 256.202 207.231 256.544 206.497C256.7 206.159 256.973 205.753 256.919 205.371C256.915 205.337 256.881 205.31 256.849 205.301C256.81 205.29 256.769 205.279 256.729 205.268C256.639 205.244 256.602 205.36 256.669 205.411Z" fill="#717171"/>
<path d="M189.444 194.531C189.214 194.839 188.748 195.118 188.472 195.394C187.926 195.95 187.412 196.502 186.813 197.01C186.152 197.568 185.51 198.2 184.764 198.648C184.281 198.937 183.668 199.111 183.274 199.528C183.128 199.68 183.272 199.948 183.482 199.887C184.275 199.663 184.909 199.824 185.634 199.354C186.364 198.878 187.023 198.181 187.613 197.548C188.207 196.912 188.61 196.233 189.102 195.524C189.323 195.207 189.627 194.977 189.677 194.593C189.697 194.454 189.507 194.445 189.444 194.531Z" fill="#717171"/>
<path d="M191.838 195.787C191.014 196.569 190.184 197.422 189.396 198.237C188.993 198.653 188.736 199.167 188.247 199.502C187.772 199.832 187.222 200.012 186.749 200.355C186.562 200.491 186.558 200.818 186.818 200.881C188.109 201.198 189.123 200.689 189.903 199.657C190.368 199.047 190.88 198.575 191.224 197.88C191.549 197.224 191.871 196.632 192.072 195.922C192.111 195.786 191.937 195.692 191.838 195.787Z" fill="#717171"/>
<path d="M193.185 190.661C193.607 190.891 193.921 191.098 194.235 191.483C194.426 191.718 194.588 192.018 194.844 192.188C195.16 192.4 195.395 192.323 195.592 192.02C195.661 191.911 195.571 191.767 195.448 191.768C194.919 191.771 194.66 191.15 194.311 190.857C194.013 190.606 193.653 190.528 193.286 190.42C193.145 190.379 193.053 190.589 193.185 190.661Z" fill="#717171"/>
<path d="M194.3 189.869C194.619 190.319 195.246 191.255 195.878 190.923C195.996 190.861 195.978 190.7 195.878 190.634C195.433 190.334 195.035 189.981 194.705 189.556C194.527 189.326 194.132 189.632 194.3 189.869Z" fill="#717171"/>
<path d="M194.57 188.765C194.918 189.128 195.258 189.538 195.725 189.742C195.855 189.799 196.022 189.634 195.892 189.526C195.511 189.204 195.113 188.875 194.686 188.615C194.593 188.557 194.496 188.687 194.57 188.765Z" fill="#717171"/>
<path d="M194.754 187.163C194.901 187.198 195.047 187.235 195.196 187.271C195.277 187.303 195.335 187.166 195.255 187.129C194.975 186.996 195.061 187.018 194.754 186.998C194.645 186.988 194.648 187.152 194.754 187.163Z" fill="#717171"/>
<path d="M194.881 186.618C194.863 186.412 194.9 186.219 194.99 186.041C194.993 186.034 194.981 186.031 194.978 186.038C194.892 186.248 194.861 186.396 194.857 186.618C194.857 186.633 194.881 186.633 194.881 186.618Z" fill="#717171"/>
<path d="M195.407 175.07C195.905 176.608 195.476 178.873 195.361 180.46C195.206 182.579 195.247 184.727 195.364 186.849C195.37 186.957 195.527 186.957 195.531 186.849C195.642 184.449 195.537 182.047 195.638 179.645C195.697 178.27 195.95 176.356 195.488 175.047C195.47 174.998 195.39 175.018 195.407 175.07Z" fill="#717171"/>
<path d="M257.737 202.525C258.271 203.189 258.287 203.894 259.177 204.176C259.382 204.241 259.611 204.098 259.666 203.899C259.736 203.649 259.772 203.514 259.638 203.287C259.563 203.161 259.407 203.183 259.327 203.287C259.267 203.373 259.184 203.426 259.083 203.451H259.483C258.872 203.112 258.591 202.444 257.941 202.174C257.723 202.085 257.624 202.384 257.737 202.525Z" fill="#717171"/>
<path d="M258.3 201.279C258.912 201.446 259.082 202.271 259.783 202.323C259.933 202.333 260.034 202.168 260.001 202.035C259.993 202.007 259.988 201.978 259.981 201.949C259.955 201.846 259.838 201.813 259.751 201.856C259.435 202.015 258.808 200.982 258.3 201.083C258.2 201.104 258.206 201.255 258.3 201.279Z" fill="#717171"/>
<path d="M258.582 199.195C258.933 199.566 259.301 199.885 259.624 200.282C259.774 200.465 259.903 200.667 260.159 200.668C260.29 200.67 260.36 200.549 260.339 200.432C260.328 200.362 260.316 200.293 260.303 200.222C260.279 200.084 260.087 200.11 260.049 200.222C260.026 200.293 260.003 200.362 259.978 200.432C260.055 200.388 260.133 200.345 260.21 200.302C259.954 200.205 259.779 199.862 259.586 199.678C259.331 199.436 259.028 199.247 258.767 199.008C258.643 198.894 258.463 199.071 258.582 199.195Z" fill="#717171"/>
<path d="M258.851 197.229C259.371 197.481 259.644 197.841 260.009 198.261C260.217 198.5 260.41 198.792 260.72 198.882C260.853 198.922 260.93 198.756 260.847 198.663C260.28 198.013 259.763 197.349 258.934 197.033C258.82 196.99 258.741 197.177 258.851 197.229Z" fill="#717171"/>
<path d="M260.698 181.053C259.716 185.784 258.838 191.287 259.226 196.096C259.249 196.361 259.687 196.473 259.732 196.163C260.46 191.129 260.403 186.138 260.814 181.07C260.82 181.003 260.711 180.987 260.698 181.053Z" fill="#717171"/>
<path d="M241.801 179.543C241.801 179.543 253.182 189.06 238.492 192.162Z" fill="#717171"/>
<path d="M238.699 193.819C238.699 193.819 250.078 203.337 235.388 206.44Z" fill="#717171"/>
<path d="M166.901 161.128C166.901 161.128 157.176 163.198 165.039 171.266Z" fill="#717171"/>
<path d="M165.246 179.543C165.246 179.543 153.55 181.405 163.854 189.268Z" fill="#717171"/>
<path d="M482.429 208.169V251.482C482.247 254.589 480.054 256.143 475.85 256.143L466.393 257.65C463.651 258.107 461.321 258.61 459.402 259.158C457.94 259.615 456.752 259.889 455.838 259.98C453.645 260.163 452.549 259.067 452.549 256.691C452.549 255.777 452.732 254.452 453.097 252.716C454.102 248.604 454.605 243.852 454.605 238.461V208.169L454.742 204.331L453.097 200.768C452.092 199.945 449.396 199.534 445.01 199.534H390.869C386.757 199.534 384.061 199.214 382.782 198.575C381.594 197.843 381 196.29 381 193.914C381 189.437 391.874 172.029 413.622 141.692C429.887 119.03 444.508 99.7494 457.483 83.8496C470.55 67.9499 478.226 60 480.51 60C481.973 60 482.704 61.1879 482.704 63.5637L482.566 75.2144L482.429 87.4134V168.831L483.115 172.532C483.754 173.994 486.085 174.725 490.105 174.725C497.141 174.725 501.71 171.709 503.812 165.678C504.36 164.034 505.228 163.211 506.416 163.211C508.792 163.211 509.98 164.262 509.98 166.364C509.98 167.278 509.888 168.191 509.706 169.105C509.34 170.841 508.929 174.725 508.472 180.756C507.924 188.98 506.736 194.234 504.908 196.519C503.081 198.712 499.197 199.808 493.258 199.808H488.734C485.902 199.808 484.12 200.265 483.389 201.179C482.749 202.093 482.429 204.423 482.429 208.169ZM454.605 165.953V142.24L454.331 126.752L454.605 112.771L454.468 109.207C454.468 107.654 454.057 106.877 453.234 106.877C452.412 106.877 451.041 108.156 449.122 110.715L444.462 116.883L429.659 136.072C423.719 143.656 416.82 153.48 408.962 165.541C407.682 167.552 406.631 169.059 405.809 170.065C404.804 171.435 404.301 172.578 404.301 173.491C404.393 174.953 406.22 175.684 409.784 175.684L414.17 175.821H449.808C453.097 175.821 454.742 173.628 454.742 169.242L454.605 165.953Z" fill="#454545"/>
</svg>
